<svg xmlns="http://www.w3.org/2000/svg" viewBox="0 -15 200 185"><path style="fill:#1f1f1f" d="m 197.23914,117.96194 c -3.8677,4.8796 -13.34356,8.36053 -13.34356,8.36053 0,0 -70.49109,25.31994 -70.49109,25.31994 0,0 0,-18.67289 0,-18.67289 0,0 51.87665,-18.48401 51.87665,-18.48401 5.887,-2.10924 6.79096,-5.09097 2.00581,-6.65604 -4.77616,-1.56957 -13.42451,-1.11983 -19.31601,0.99841 0,0 -34.56645,12.17426 -34.56645,12.17426 0,0 0,-19.37898 0,-19.37898 0,0 1.99232,-0.6746 1.99232,-0.6746 0,0 9.98856,-3.534896 24.03371,-5.09097 14.04515,-1.547081 31.24291,0.211374 44.74389,5.32933 15.21445,4.80764 16.92793,11.89543 13.06473,16.77502 z M 120.11451,86.165853 c 0,0 0,-47.752601 0,-47.752601 0,-5.608163 -1.03439,-10.771093 -6.29626,-12.232725 -4.0296,-1.290734 -6.53012,2.45104 -6.53012,8.054706 0,0 0,119.583887 0,119.583887 0,0 -32.250314,-10.23591 -32.250314,-10.23591 0,0 0,-142.58321 0,-142.58321 13.712343,2.54549 33.689454,8.56291 44.429074,12.18326 27.31226,9.376917 36.57225,21.047482 36.57225,47.343343 0,25.630256 -15.82159,35.344478 -35.92463,25.63925 z M 15.862004,131.01768 C 0.24279269,126.6193 -2.3566614,117.45375 4.7626047,112.17389 c 6.5795883,-4.8751 17.7689333,-8.54492 17.7689333,-8.54492 0,0 46.241498,-16.442224 46.241498,-16.442224 0,0 0,18.744854 0,18.744854 0,0 -33.275709,11.90892 -33.275709,11.90892 -5.878004,2.10924 -6.781967,5.09547 -2.005807,6.66054 4.780657,1.56506 13.433512,1.11983 19.320511,-0.99391 0,0 15.961005,-5.79256 15.961005,-5.79256 0,0 0,16.77053 0,16.77053 -1.011893,0.17989 -2.140724,0.35978 -3.184104,0.53518 -15.965505,2.60845 -32.969893,1.5201 -49.726928,-4.00262 z"/></svg>